<?xml version="1.0" standalone="no"?>
<!DOCTYPE svg PUBLIC "-//W3C//DTD SVG 20010904//EN"
 "http://www.w3.org/TR/2001/REC-SVG-20010904/DTD/svg10.dtd">
<svg version="1.0" xmlns="http://www.w3.org/2000/svg"
 width="512.000000pt" height="512.000000pt" viewBox="0 0 512.000000 512.000000"
 preserveAspectRatio="xMidYMid meet">
<metadata>
Created by potrace 1.16, written by Peter Selinger 2001-2019
</metadata>
<g transform="translate(0.000000,512.000000) scale(0.100000,-0.100000)"
fill="#000000" stroke="none">
<path d="M2395 4839 c-94 -11 -232 -52 -332 -99 -157 -73 -305 -194 -415 -339
-68 -90 -152 -266 -185 -386 -24 -91 -27 -116 -27 -280 1 -164 3 -189 28 -280
111 -413 439 -721 861 -810 96 -20 311 -23 405 -6 384 71 700 326 840 674 64
159 73 214 74 417 1 164 -2 195 -23 275 -146 555 -655 901 -1226 834z m313
-265 c322 -66 576 -306 663 -629 31 -112 31 -306 0 -420 -79 -295 -299 -520
-596 -611 -79 -24 -107 -28 -230 -28 -115 0 -154 3 -217 21 -317 91 -544 326
-619 640 -18 74 -20 109 -16 218 5 151 20 215 81 340 115 239 336 414 596 469
88 19 245 19 338 0z"/>
<path d="M1710 2436 c-178 -51 -487 -225 -687 -387 -195 -158 -416 -413 -546
-631 -126 -211 -230 -470 -281 -700 -52 -232 -61 -346 -31 -391 46 -71 148
-75 208 -9 12 13 24 60 37 148 40 256 93 430 200 651 171 351 424 640 750 856
109 72 371 207 403 207 10 0 36 -9 59 -21 126 -64 338 -128 497 -149 134 -18
368 -14 501 9 135 23 292 73 420 132 l91 42 57 -23 c540 -218 997 -693 1206
-1253 60 -162 85 -264 131 -553 8 -47 67 -94 120 -94 41 0 94 29 110 61 20 38
19 115 -4 245 -131 748 -599 1390 -1271 1742 -173 90 -285 132 -357 132 -51 0
-74 -7 -161 -50 -220 -107 -381 -145 -622 -145 -230 1 -382 35 -600 136 -119
55 -166 64 -230 45z"/>
</g>
</svg>
