<?xml version="1.0" standalone="no"?>
<!DOCTYPE svg PUBLIC "-//W3C//DTD SVG 20010904//EN"
 "http://www.w3.org/TR/2001/REC-SVG-20010904/DTD/svg10.dtd">
<svg version="1.0" xmlns="http://www.w3.org/2000/svg"
 width="860.000000pt" height="778.000000pt" viewBox="0 0 860.000000 778.000000"
 preserveAspectRatio="xMidYMid meet">
<metadata>
Created by potrace 1.16, written by Peter Selinger 2001-2019
</metadata>
<g transform="translate(0.000000,778.000000) scale(0.100000,-0.100000)"
fill="#000000" stroke="none">
<path d="M405 7366 c-17 -7 -45 -29 -62 -49 -58 -66 -56 -151 4 -217 20 -23
50 -44 71 -50 24 -6 302 -10 760 -10 786 0 753 2 829 -56 69 -53 76 -72 178
-529 53 -236 120 -538 150 -670 142 -634 313 -1399 395 -1765 50 -223 142
-634 205 -915 63 -280 141 -628 173 -772 l59 -262 -61 -22 c-241 -87 -434
-298 -502 -549 -27 -99 -25 -301 4 -403 59 -206 194 -380 378 -483 458 -257
1035 -3 1161 514 11 44 16 107 16 182 -1 137 -23 233 -80 341 -21 41 -39 77
-41 82 -2 4 492 7 1098 7 606 0 1100 -3 1098 -7 -97 -190 -120 -270 -120 -428
-1 -229 80 -416 250 -577 124 -116 266 -184 436 -208 266 -37 545 73 716 283
60 73 133 216 157 307 24 90 24 300 0 390 -25 94 -97 235 -160 310 -57 69
-173 163 -247 200 -138 69 -305 100 -448 81 -63 -8 -560 -11 -1700 -11 l-1612
0 -5 23 c-29 121 -235 1049 -235 1057 0 6 601 11 1773 12 1661 3 1775 4 1823
21 76 25 170 92 213 151 22 29 87 164 154 316 298 686 859 1971 977 2240 98
224 106 266 72 365 -25 72 -68 121 -136 155 l-59 30 -2779 0 c-1528 0 -2778 2
-2778 4 0 15 -113 501 -126 538 -56 169 -249 333 -439 373 -98 21 -1513 22
-1560 1z m7525 -1256 c0 -6 -39 -99 -86 -208 -47 -108 -218 -498 -379 -867
-367 -841 -596 -1365 -625 -1433 -13 -29 -34 -62 -48 -72 -24 -20 -51 -20
-1813 -20 -1694 0 -1788 1 -1793 18 -3 9 -33 141 -66 292 -34 151 -111 496
-171 765 -266 1188 -339 1517 -339 1526 0 5 1074 9 2660 9 1824 0 2660 -3
2660 -10z m-4475 -4369 c99 -9 168 -42 241 -115 179 -180 177 -468 -5 -646
-208 -203 -544 -164 -702 81 -92 144 -92 344 1 489 78 122 245 219 350 204 19
-3 71 -9 115 -13z m3610 -11 c303 -104 396 -500 173 -736 -90 -95 -201 -144
-328 -144 -282 0 -502 260 -451 535 35 189 204 354 365 356 34 0 70 4 81 9 26
12 91 4 160 -20z"/>
</g>
</svg>
