<?xml version="1.0" standalone="no"?>
<!DOCTYPE svg PUBLIC "-//W3C//DTD SVG 20010904//EN"
 "http://www.w3.org/TR/2001/REC-SVG-20010904/DTD/svg10.dtd">
<svg version="1.0" xmlns="http://www.w3.org/2000/svg"
 width="225.000000pt" height="225.000000pt" viewBox="0 0 225.000000 225.000000"
 preserveAspectRatio="xMidYMid meet">
<metadata>
Created by potrace 1.16, written by Peter Selinger 2001-2019
</metadata>
<g transform="translate(0.000000,225.000000) scale(0.100000,-0.100000)"
fill="#000000" stroke="none">
<path d="M977 2124 c-98 -23 -207 -87 -279 -162 -114 -118 -166 -236 -175
-392 -28 -494 518 -810 934 -539 259 169 347 514 201 792 -72 138 -237 266
-390 302 -78 18 -214 18 -291 -1z m254 -78 c93 -20 183 -68 255 -138 257 -247
190 -679 -130 -837 -79 -39 -133 -50 -231 -51 -173 0 -318 73 -420 211 -150
203 -131 480 46 664 128 134 303 188 480 151z"/>
<path d="M647 941 c-303 -159 -505 -446 -553 -784 l-6 -48 43 3 43 3 12 72
c51 302 273 586 553 704 l64 27 -41 26 c-23 14 -46 26 -51 26 -5 0 -34 -13
-64 -29z"/>
<path d="M1486 946 l-38 -24 74 -35 c207 -95 369 -258 469 -471 41 -87 79
-220 79 -273 0 -33 1 -33 46 -33 l46 0 -7 48 c-38 264 -178 511 -381 673 -72
57 -210 139 -234 139 -8 0 -32 -11 -54 -24z"/>
</g>
</svg>
