<?xml version="1.0" standalone="no"?>
<!DOCTYPE svg PUBLIC "-//W3C//DTD SVG 20010904//EN"
 "http://www.w3.org/TR/2001/REC-SVG-20010904/DTD/svg10.dtd">
<svg version="1.0" xmlns="http://www.w3.org/2000/svg"
 width="228.000000pt" height="221.000000pt" viewBox="0 0 228.000000 221.000000"
 preserveAspectRatio="xMidYMid meet">
<metadata>
Created by potrace 1.16, written by Peter Selinger 2001-2019
</metadata>
<g transform="translate(0.000000,221.000000) scale(0.100000,-0.100000)"
fill="#000000" stroke="none">
<path d="M203 2180 c-60 -36 -63 -52 -63 -334 l0 -255 -33 6 c-42 6 -83 -25
-97 -75 -8 -25 -10 -261 -8 -745 l3 -709 33 -29 32 -29 1070 0 1070 0 32 29
33 29 3 709 c2 484 0 720 -8 745 -15 53 -55 81 -102 74 l-38 -6 0 265 0 265
-34 38 -34 37 -914 3 c-892 2 -914 2 -945 -18z m1815 -397 l2 -302 -445 -391
-446 -390 -197 176 c-108 97 -306 274 -439 393 l-243 216 0 287 c0 157 3 294
6 302 6 15 90 16 883 14 l876 -3 3 -302z m-1592 -593 c169 -151 320 -286 336
-300 l30 -25 -337 -295 c-184 -162 -340 -296 -345 -298 -6 -2 -10 214 -10 598
0 360 4 600 9 598 5 -1 148 -127 317 -278z m1754 -320 c0 -346 -4 -600 -9
-600 -5 0 -69 53 -142 118 -74 64 -227 199 -341 299 l-207 182 342 300 c188
165 345 301 350 301 4 0 7 -270 7 -600z m-391 -410 c209 -184 381 -338 381
-342 0 -5 -463 -8 -1030 -8 -608 0 -1030 4 -1030 9 0 9 742 664 757 668 4 1
60 -45 123 -102 73 -67 123 -104 138 -105 15 0 64 37 145 109 67 60 125 109
128 108 4 -1 178 -153 388 -337z"/>
<path d="M480 1810 c-24 -24 -25 -38 -4 -68 15 -21 21 -22 173 -22 140 0 160
2 174 18 22 24 21 55 -1 75 -16 14 -43 17 -170 17 -139 0 -154 -2 -172 -20z"/>
<path d="M1007 1812 c-21 -23 -22 -56 -1 -76 12 -13 39 -16 125 -16 126 0 149
8 149 50 0 52 -19 60 -144 60 -97 0 -115 -3 -129 -18z"/>
<path d="M1456 1814 c-23 -22 -20 -71 3 -84 26 -13 306 -13 332 0 23 13 26 62
3 84 -23 23 -315 23 -338 0z"/>
<path d="M680 1489 c-17 -30 -8 -62 20 -76 34 -17 246 -17 280 0 16 8 26 23
28 40 6 53 -6 57 -169 57 -139 0 -149 -1 -159 -21z"/>
<path d="M1276 1494 c-20 -19 -20 -44 -2 -70 13 -17 29 -19 136 -22 142 -4
164 0 186 33 15 23 15 27 0 50 -16 25 -18 25 -161 25 -117 0 -146 -3 -159 -16z"/>
<path d="M970 1180 c-25 -25 -26 -52 -2 -73 16 -14 43 -17 173 -17 167 0 179
3 179 51 0 54 -17 59 -181 59 -136 0 -151 -2 -169 -20z"/>
</g>
</svg>
