<?xml version="1.0" standalone="no"?>
<!DOCTYPE svg PUBLIC "-//W3C//DTD SVG 20010904//EN"
 "http://www.w3.org/TR/2001/REC-SVG-20010904/DTD/svg10.dtd">
<svg version="1.0" xmlns="http://www.w3.org/2000/svg"
 width="200.000000pt" height="200.000000pt" viewBox="0 0 200.000000 200.000000"
 preserveAspectRatio="xMidYMid meet">
<metadata>
Created by potrace 1.16, written by Peter Selinger 2001-2019
</metadata>
<g transform="translate(0.000000,200.000000) scale(0.100000,-0.100000)"
fill="#000000" stroke="none">
<path d="M258 1684 c-59 -31 -58 -20 -58 -644 0 -401 3 -578 11 -593 28 -54
38 -57 260 -57 210 0 224 2 212 38 -4 9 -52 12 -194 12 -112 0 -198 4 -210 10
-18 10 -19 26 -19 475 l0 465 740 0 740 0 0 -464 c0 -361 -3 -467 -12 -473 -7
-4 -87 -10 -178 -13 -162 -5 -165 -5 -168 -27 l-3 -23 178 0 c191 0 205 4 232
57 8 15 11 192 11 593 0 626 1 613 -60 645 -43 22 -1441 22 -1482 -1z m1470
-56 c7 -7 12 -44 12 -95 l0 -83 -740 0 -740 0 0 83 c0 51 5 88 12 95 17 17
1439 17 1456 0z"/>
<path d="M466 1314 c-12 -30 -7 -239 6 -252 18 -18 302 -17 317 2 8 9 11 55 9
137 l-3 124 -161 3 c-141 2 -162 0 -168 -14z m274 -119 l0 -85 -110 0 -110 0
0 85 0 85 110 0 110 0 0 -85z"/>
<path d="M913 1315 c-3 -9 -1 -21 4 -26 5 -5 97 -8 224 -7 206 3 214 4 214 23
0 19 -8 20 -218 23 -191 2 -218 0 -224 -13z"/>
<path d="M1166 1204 c-15 -38 9 -44 178 -44 88 0 167 4 174 9 8 5 12 17 10 27
-3 18 -16 19 -179 22 -157 2 -177 1 -183 -14z"/>
<path d="M980 959 c-334 -76 -581 -136 -590 -144 -20 -21 -15 -25 178 -135
l167 -96 3 -129 c2 -121 10 -155 34 -155 15 0 118 102 118 117 0 24 -31 26
-61 4 l-29 -22 0 72 c0 57 3 70 14 66 8 -3 105 -58 217 -122 111 -64 207 -114
213 -112 17 7 376 757 369 773 -3 8 -17 14 -32 13 -14 -1 -285 -59 -601 -130z
m405 23 c-6 -5 -146 -86 -312 -181 l-302 -173 -136 78 c-75 42 -133 79 -130
83 6 6 845 198 875 200 8 1 10 -2 5 -7z m116 -34 c-10 -24 -77 -163 -149 -310
l-130 -268 -196 112 c-107 62 -194 114 -192 116 5 4 680 392 683 392 1 0 -6
-19 -16 -42z"/>
</g>
</svg>
